<svg id="SvgjsSvg1001" width="288" height="288" xmlns="http://www.w3.org/2000/svg" version="1.1" xmlns:xlink="http://www.w3.org/1999/xlink" xmlns:svgjs="http://svgjs.com/svgjs"><defs id="SvgjsDefs1002"></defs><g id="SvgjsG1008"><svg xmlns="http://www.w3.org/2000/svg" enable-background="new 0 0 2754 1634.04" viewBox="0 0 2754 1634.04" width="288" height="288"><path d="M28.6854 637.2447c26.0546-39.4669 57.1135-70.1191 106.848-80.4733 36.8875-7.6796 41.9256-30.4357 19.7901-63.6039-10.743-16.0975-24.0373-30.4684-30.1627-49.5222-10.7558-33.4574-11.8384-67.7147 14.8101-92.1915 75.1999-69.0716 165.5032-108.7316 265.4253-127.0797-66.2577 25.1017-130.0905 54.9906-189.7022 93.6904-55.3744 35.949-62.6582 66.8704-28.7424 122.8926 6.9035 11.4031 12.769 23.7261 17.1675 36.3053 22.6743 64.847 6.3808 98.3949-58.5453 120.1836-18.4813 6.2021-37.3058 11.3355-52.9822 23.4174-23.5759 18.1702-34.0079 42.3881-25.3544 71.1164 8.6441 28.6973 31.8829 37.9506 59.9677 35.674 22.1086-1.7921 44.1053-4.9651 68.0228-7.7421-43.5086 47.28-115.2458 41.7941-166.5422-10.7568C28.6854 685.1848 28.6854 661.2147 28.6854 637.2447zM738.7977 17.02c-3.6356 56.8817-26.9543 106.9621-55.2979 154.8116-37.5156 63.3337-99.9337 104.5635-140.6552 166.5048-17.6819-16.6373-4.0956-34.61-17.8772-48.195-20.0864-8.0604-33.4572 16.2863-52.7943 19.2137-6.7868-18.9012 4.6868-28.6885 15.6974-34.7092 35.8903-19.6252 58.4451-50.4197 77.2926-85.0939 2.8013-5.1538 5.9845-11.3179 10.7054-14.0271 65.6838-37.6937 102.369-80.1292 135.963-158.5049C720.8203 17.02 729.809 17.02 738.7977 17.02zM1242.1686 1617.02c-17.2501-15.2119-42.146-12.1113-61.4524-24.4194 88.9636-57.9253 97.4478-58.2195 215.4127-7.6956-24.2462 19.8749-56.9542 16.5299-82.0503 32.115C1290.1085 1617.02 1266.1387 1617.02 1242.1686 1617.02zM2725.3147 439.4919c-26.2161-13.1717-53.666-15.3758-87.6199-6.7784 1.1233-23.6654 2.1277-44.8317 3.2075-67.5734 41.5083-5.0746 59.5391 27.3259 84.4124 47.3855C2725.3147 421.5144 2725.3147 430.5031 2725.3147 439.4919zM1168.0376 436.2874c53.6155 76.2108 23.387 146.0493-68.4812 156.9407-49.0586 5.816-96.0137.4822-134.7162-34.476-30.8001-27.8188-67.0646-31.0739-105.1703-23.7442-88.4305 17.0098-148.0162 65.6448-173.0688 155.0255-20.1677 71.9535-38.9308 83.7787-112.816 77.6982-33.5499-2.7612-65.7655.1959-96.5787 13.6307-14.2973 6.2341-32.5898 23.1681-22.8845 32.4081 23.9565 22.8077-4.4637 36.2371-7.8575 56.0602 26.3452-11.5618 44.8966-26.4478 50.5936-48.6136 6.6823-26.0095 23.4156-30.9647 44.5466-29.2228 18.3374 1.5109 36.3632 6.7855 60.5304 11.5904-26.1861 18.1224-42.3356-2.7147-63.5369-1.0281-22.9547 54.4916-71.6314 87.0238-122.6485 123.962 20.6713 4.9794 35.5677 2.7607 51.1203 8.8922 40.4824 15.9624 87.9466-3.8936 98.2751-33.7353 31.4167-.2924 37.1258-23.1231 41.0046-47.3183 5.9252-36.9514 22.1823-59.2153 63.5533-46.7719-4.5646 33.0577-8.3787 65.4236-13.7202 97.5366-3.1173 18.7473-5.2668 38.9572-26.2662 48.4172l1.5175-1.5548c-37.5977 38.95-90.0873 34.9483-136.5004 47.2288-1.8544 32.5876 27.5632 46.6353 41.0902 70.098-29.0544-15.0769-56.6351-32.5618-81.9106-57.266-5.2592 56.8177-4.4571 58.3413 41.8517 84.7925 52.2801 29.8619 64.8317 76.5817 31.6055 137.3096 2.8287-41.1281 12.1577-78.3795-24.3065-110.3943-.0658 31.7191 6.3751 59.7579-16.6367 80.2142l1.4594-1.4386c-17.9742 53.7609-63.2 49.5803-107.4658 48.7711 45.1479 45.7574 74.5392 49.3411 123.8961 16.4468 22.304-14.8651 43.4241-32.4344 67.4947-43.5547 79.5273-36.7423 101.602-96.0811 59.1051-173.2603 54.4241-6.2582 106.2675-17.6078 148.6108-63.1326-40.2629-14.3555-75.801-.705-112.1511 2.5961 32.5294-29.0363 74.2385-32.4877 120.5616-39.3044-38.662-36.5761-77.674-7.3325-112.5626-11.7604-2.0266-48.2976 8.9142-90.3814 36.552-124.7537-6.0811-13.2994-21.7631-8.9937-25.2447-21.8761 25.5366-18.4669 36.9404-44.7332 43.4976-75.2634 5.1889-24.1567 6.487-50.6002 25.3105-70.1825l-1.2618 1.3607c27.9637-70.7322 135.3889-104.3161 194.4545-54.5043 65.2827 55.0545 188.4216 39.2106 237.9126 7.5864 27.3898-17.5018 50.3313-42.5594 57.4241-77.2867C1254.978 471.7443 1219.8568 431.0655 1168.0376 436.2874zM591.9162 1191.5427c8.811-51.6525-10.8388-89.9141-50.4807-118.7687C602.5081 1089.5408 622.5265 1133.2479 591.9162 1191.5427zM1600.0544 1187.1047c27.4263 16.5923 15.9823 45.0999 20.8666 68.5511 3.3156 15.9196 5.7391 32.0248 10.1528 57.0801 98.6091-81.8481 128.2717-198.3099 183.6748-307.2054 17.5341 146.9637-32.2651 273.7811-100.9191 387.2311-46.3743 76.6333-136.8345 118.5767-218.2002 161.7928 23.2274-31.3745 51.9017-57.1586 63.905-99.5038-72.8171 82.4851-151.672 135.4924-257.4104 54.4747 9.33-16.2745 31.4445-15.142 47.1879-24.3723 119.5482-70.0905 217.2322-158.2711 252.1492-299.483L1600.0544 1187.1047zM1789.2621 611.6692c-46.3878 43.9036-62.8047 102.9806-80.0841 161.1432-13.8387 46.5815-24.7721 94.0262-41.868 140.5322-31.5532-67.3072-34.9037-134.4315-5.6569-206.505 18.424 13.746 5.9944 34.2532 22.1282 48.8894 7.5286-55.131-5.493-110.7443 20.0769-160.2068 20.0648 3.4163 7.8856 26.0355 25.8186 32.4662 27.0295-22.7889 41.2633-52.5621 45.5551-89.7997 5.7786-50.1402 7.1539-102.3663 44.3142-143.0704 4.015-4.3978 7.7996-9.0812 12.2905-12.9332 1.8849-1.6167 5.3315-1.4125 10.9004-2.6816 6.5436 21.5592-4.2904 46.0959 7.3134 69.6082 34.5182-14.5001 40.2633-44.8922 49.2034-72.1905 17.5127-53.4757 48.5205-95.2546 103.4001-124.3841-4.5743 33.8922-38.8099 57.5412-21.6609 95.4117 29.4985-17.102 52.8307-37.8963 72.2239-64.5256 28.4487-39.0639 62.175-72.9441 107.2087-93.0718 15.021-6.7135 31.0049-10.963 50.7883-7.3229-17.8123 13.9785-34.8105 25.5775-49.6079 39.5134-10.7 10.077-23.147 24.7928-11.7485 39.0698 12.7139 15.9242 26.4592 1.8012 38.4871-6.3215 33.4341-22.5787 66.8066-45.2483 100.2849-67.761 39.7668-26.7414 84.3228-30.9571 131.947-24.8416-19.311 9.4428-38.9224 18.3286-57.8232 28.5309-11.9197 6.4339-25.1194 15.8666-17.5601 31.1349 7.2922 14.7286 23.7642 9.9214 36.5103 7.4167 8.4434-1.6592 16.0706-7.5395 24.0259-11.6032 55.3289-28.2629 112.7502-34.5308 182.5503-15.1727-43.7183 15.8756-81.7703 25.4835-106.9299 57.193-7.5249 9.4837-16.0083.7997-24.001-2.3434-19.6006-7.7076-39.7444-8.0109-60.1624-3.4678 15.2825 6.012 30.3662 11.9458 48.7102 19.1622-56.1746 45.2733-110.209 42.616-166.1833 4.1667 13.2974-14.5977 37.144-7.0641 54.478-24.3512-105.4236 10.4991-203.6536 30.8871-293.3613 84.1601-102.7349 61.0089-181.6947 144.671-242.3561 246.6685-5.3521 8.9993-11.3087 17.7339-10.6481 28.9275L1789.2621 611.6692zM1076.2683 1211.2887c13.941 51.3972 6.0448 93.1066-22.7189 131.9447-13.2275 17.8606-21.4769 38.9685-28.7838 60.459-28.7036 84.4202-14.2599 94.3126 79.1981 114.8701 33.6901 7.4108 70.3787 1.1901 107.4486 1.1901-35.9019 35.2878-90.3832 38.7964-212.5163 13.9387 13.6218 23.8824 35.4073 29.0183 54.2454 37.6234 19.6136 8.9591 42.9802 9.1108 60.6124 22.8237-.9193 3.842-1.8386 7.6841-2.7579 11.5261-54.5522-13.6754-109.3612-26.4142-163.5881-41.2764-60.4488-16.5674-105.9105-49.7404-132.1252-110.5339-10.3723-24.0542-35.9359-40.8575-44.0892-69.6785-29.6737-104.8906 56.434-227.845 116.4583-269.2075 15.4155-10.6227 25.2982-9.9999 61.3491-4.4919-10.4872 34.1621-40.1465 51.0449-63.1303 73.4895-64.0145 62.5128-105.7326 133.0579-82.0244 231.4054 18.1367-23.9695 8.6573-50.8646 22.5101-81.4558 13.9682 78.3329 75.6831 109.1243 126.4243 155.5125-2.6832-29.2051-15.5185-55.1862-6.2539-82.6012 22.6221 1.201 20.3575 29.3163 46.1199 35.1895C954.6074 1341.7345 977.4598 1264.0387 1076.2683 1211.2887zM1270.8828 44.8742c-2.6671 83.9243-63.6758 125.4597-116.3762 177.4596 58.5366 0 114.7521 0 172.9395 0-20.0747 31.1185-50.9357 41.2112-83.9192 43.8611-61.1514 4.9128-122.2474 8.5126-177.3333 39.8145-43.4021-25.3926-75.998 12.5696-113.9166 19.3336-2.7758.4952-6.4258.6727-8.5963-.6995-40.6331-25.6894-83.2209-24.5855-127.9415-8.6646 15.0579-27.2593 42.4106-39.7736 66.3759-37.0771 73.4831 8.2678 110.9375-40.9238 152.4529-85.5031 8.0793-8.6755 14.3828-19.0048 23.8303-31.6938 19.3929 15.5783 35.5551 6.2056 54.7422-6.3265 39.0868-25.5295 73.5874-56.051 107.6658-87.3714C1233.7726 56.0901 1245.8429 42.8286 1270.8828 44.8742zM1113.5914 1056.7072c2.7087-17.4749 16.3868-25.5022 27.5951-34.291 43.2449-33.9097 68.0216-79.351 80.1824-131.3239 4.5287-19.3541 9.4346-32.4392 30.2325-37.3838 11.3364-2.6951 21.6263-9.9096 32.2981-15.2654 76.8021-38.5439 83.1503-59.4833 39.1566-137.9267 33.9698-7.441 65.2144-7.2606 91.689 16.3708 23.3779 20.8672 31.6475 49.5527 19.8696 77.7102-44.1427 105.5328-167.8363 256.5386-308.1895 264.5878C1122.3964 1059.4163 1118.2532 1057.6555 1113.5914 1056.7072z" fill="#e40000" class="color000 svgShape"></path><path d="M228.3507 720.87c-23.2257-8.6627-33.9338-26.2294-26.6185-49.1873 6.4806-20.3385 24.771-26.366 46.2713-28.2537 48.6577-4.272 95.3642-4.1149 134.3542 31.7878-12.0283 13.457-22.0794 26.8893-8.1897 45.1572 20.7177 27.2482 41.792 12.2885 61.5919-1.2542 13.7992 13.6531 8.5077 25.6755 3.7065 37.5166-3.2552 1.0517-6.3562 3.2678-8.4207 2.5407-38.0739-13.4099-73.2881-.4515-109.2776 10.1145-30.5853 8.9793-63.2433 22.4097-86.5721-18.5018 16.8797 54.4189 85.7085 72.0032 189.4877 51.4145 0 28.9845.564 57.1436-.1837 85.2678-.5682 21.3728-17.5831 32.0692-34.0522 35.595-15.7974 3.3821-23.5402-9.5444-19.4515-27.1533 8.812-14.1003 22.0287 10.8848 30.59-3.6234-6.7302-16.7179-13.9373-34.6204-21.9987-54.645-38.6065 2.8012-78.3911-2.0744-118.2116-6.9349-17.4661 19.3818-.8554 40.0662-2.8697 59.8888-51.146-22.5371-66.954-111.1855-31.0309-170.7023 10.4215-12.9426.7018-33.0123 16.2068-44.1069C217.3376 683.8327 229.0448 704.3785 228.3507 720.87zM307.0895 682.86c-4.6786-15.1833-13.6413-10.4061-27.9455-2.6692 12.9249.6522 20.9608 1.0576 28.9967 1.4631 11.4982 10.1119 23.4067 19.0092 44.179 16.1201C337.7114 680.6028 322.6534 680.8882 307.0895 682.86zM1375.0786 564.2012c-32.5825-25.7381-73.527-29.4672-111.7124-40.9283-3.5311-18.9131 18.7419-18.2392 21.819-33.4813.8295-17.9473-20.9419-26.2571-24.4497-44.032 88.777-2.3823 253.5049 87.7302 297.8848 162.9726 25.7175 43.6023 26.1296 157.7059-5.0226 213.0789-4.0897-65.0833 4.6713-125.9709-37.3156-170.8871-39.0399-41.7636-84.5618-75.7763-142.6458-87.9966L1375.0786 564.2012z" fill="#e40000" class="color000 svgShape"></path><path d="M1373.6364 562.9275c37.9144 27.6812 83.9509 47.4517 96.9146 99.4401 1.7386 6.973 3.3447 13.9789 6.6876 27.9948-17.7656-12.5228-29.8401-21.7131-42.5754-29.8714-27.8536-17.8429-55.3319-19.4084-82.9349 1.6873-46.6163 35.6267-93.002 44.7039-140.855.2475-11.3232-10.5195-28.8184-14.3958-46.125-22.5815 64.2014-47.7821 127.3654-88.8952 210.3304-75.6431L1373.6364 562.9275zM1327.3558 1015.077c53.3597-18.3503 65.5245-68.4845 82.6669-112.5464 7.7853-20.0104 13.9043-36.8603 31.9489-50.4161 35.9231-26.9866 48.1018-66.6885 51.4377-109.9061 1.2347-15.9951-2.6865-32.6616 6.0693-49.4349 21.6088.8902 24.4312 18.358 28.2559 33.345 35.8256 140.3817-40.3641 268.331-181.156 306.7403-20.7052 5.6487-23.6016-.9121-19.4247-18.3258L1327.3558 1015.077zM1367.957 1175.8212c-20.2096 6.7186-27.6782 26.9113-38.8328 41.2877-49.8839 64.2925-112.7035 112.0702-182.566 150.0715 1.0901-31.134 30.0701-51.3099 40.5756-80.1481 25.1989-69.1724 64.8052-119.3425 137.3071-150.4022 59.153-25.3412 107.0548-74.8221 134.8727-138.3306-9.6847 71.3914-61.6681 119.7836-92.9423 179.0262L1367.957 1175.8212zM866.6315 399.7345c53.3227-21.5878 91.4724-60.14 147.7683-36.0538-18.5059 58.3587-46.5588 97.0697-112.807 98.0829-37.9777.5809-75.7646 13.6346-115.7967 21.4972-2.1521-21.2085 19.5753-30.353 20.4915-51.0756-30.4827 3.2907-54.5728 20.146-67.0357 44.1511-34.1451 65.7675-87.5878 79.9052-158.703 62.2251 63.2247-11.1595 88.2338-63.1941 126.332-102.5471 13.7141-14.1658 53.474-22.3287 82.7928-22.4796 27.0806-.1393 53.0763-.6157 81.7767 9.8428 47.5986 17.345 87.8844-11.9571 125.7914-52.1998C949.2418 364.5021 921.6855 418.9554 866.6315 399.7345zM1320.4836 735.4319c-5.7295 54.0784-36.1556 83.4144-94.2886 94.8408-47.7955 9.3943-97.9766-16.5974-122.3209-64.1101-10.2156-19.9374-20.1425-40.144-28.3333-60.9629-7.842-19.9324-22.5701-34.6962-38.5846-55.5878 50.5188 7.0728 92.8466 9.2294 121.505 59.7811C1189.7124 764.5179 1238.9888 768.5397 1320.4836 735.4319zM1478.2252 1260.4819c-1.4028 56.8798-20.2937 105.6539-62.0667 143.8917-14.1323 12.9362-31.3103 22.8939-48.0367 32.5908-107.7183 62.4487-108.8551 58.1989-165.0465-73.7477 58.174 32.9296 107.6962 19.0942 156.5389-5.6573C1405.9946 1334.0558 1449.0734 1307.0485 1478.2252 1260.4819z" fill="#e40000" class="color000 svgShape"></path><path d="M1327.1536 1014.5329c-37.671 49.8294-75.8722 99.2691-112.8634 149.5983-36.6093 49.8093-75.5421 98.4958-85.3225 171.1041-68.3837-120.4512 37.7531-279.6635 198.3882-320.1584C1327.3558 1015.077 1327.1538 1014.533 1327.1536 1014.5329zM2541.4932 568.5197c9.2537-36.2883 34.0518-69.0122 19.4998-110.2979-16.2258 11.1711-11.7498 35.0678-35.1782 46.2052 7.3406-80.9505-43.7676-131.2975-87.2795-185.6035 72.0149-28.49 90.5359-19.146 128.6155 63.7892 6.3711-20.6934 15.7927-25.1244 28.8994-6.062 14.5313 21.1348 13.9382 45.5258 12.73 69.2015C2606.1702 496.8925 2582.3582 537.1554 2541.4932 568.5197zM1646.3922 1252.2919c0-36.7954-.7925-69.4447.224-102.0376 1.0067-32.28 13.9089-59.8595 34.2206-85.2837 33.3069-41.691 70.2334-81.8388 75.8258-141.3951C1798.8566 1001.8909 1719.8347 1200.5393 1646.3922 1252.2919zM1793.2068 997.8683c-8.676-105.8505 17.3812-200.9155 15.0315-302.9507C1902.6008 778.83 1894.9236 883.0157 1793.2068 997.8683z" fill="#e40000" class="color000 svgShape"></path><path d="M1867.3116 944.9144c21.7224-100.402 48.4204-199.6699 37.2754-306.334 35.7617 3.1309 66.2463 9.4398 101.7133-11.11C1967.006 743.4156 1928.6191 848.622 1867.3116 944.9144zM650.6163 283.8596c11.6133 9.4335 7.757 29.0724 25.2159 34.8881 27.0602-2.5721 37.6087-26.1672 48.827-46.1775 18.8113-33.5543 44.5415-49.009 83.56-47.985 43.8665 1.1512 78.3145-17.7387 110.0201-50.217 18.969-19.4312 53.4454-23.3193 62.8539-56.6029-9.8403 90.5527-41.9446 126.2628-125.0259 134.9537-56.9644 5.9588-102.0707 31.4755-139.5405 72.269-16.4725 17.9335-34.0228 23.4686-55.7164 13.5945C642.8847 330.4232 641.7146 322.2229 650.6163 283.8596zM1100.4563 1027.9624c-10.7813 46.0795-17.9579 91.1644-20.1902 136.8804-.3661 7.4943-2.1035 14.9569-10.0222 18.509-39.2903 17.6248-64.1495 51.113-89.6714 86.0599C952.7098 1190.3365 1021.3557 1052.3197 1100.4563 1027.9624zM1039.2821 1020.2665c34.0266-64.6547 67.5546-121.585 58.7366-194.027 33.683 9.4179 62.8302 22.8787 97.1307 23.8129C1186.0305 944.0203 1129.1271 990.9247 1039.2821 1020.2665zM2087.5405 465.6726c-9.7703 11.0627-23.0649 20.5802-28.7087 33.4523-26.3373 60.0679-80.7032 77.2831-136.8282 95.4101 19.6279-110.5928 74.0143-157.2616 193.9764-168.0876.7871 11.6175-8.4817 17.9187-13.7446 26.2803C2097.3372 457.0426 2092.439 461.3577 2087.5405 465.6726zM709.0751 380.6101c-30.8396-11.0099-49.5808-2.4782-69.0923 9.787-28.8777 18.1531-58.0956 38.6883-79.9662 64.3483-29.1323 34.1824-58.5477 59.6685-107.4395 46.6797 9.2861 41.827 9.2861 41.827 31.3729 43.5234 45.1501 3.4673 87.1829-22.3578 107.4285-62.6108 15.715-31.2456 28.2917-66.3026 66.9175-78.4893-.0077-.0346 0-.0543-.0088-.0883 2.741 3.6298-2.0716 13.622 7.0115 10.503 40.1861-13.7986 82.2419-14.2732 123.7195-18.9568 15.9301-1.799 30.8528-5.3075 43.9003-27.4348C787.7422 383.051 743.652 392.9549 709.0751 380.6101zM970.1104 1131.7183c-6.0607 37.4972-11.4109 68.363-8.4377 99.7803 1.0106 10.6775-.1814 20.4578-6.79 29.677-60.0753 83.8073-41.3542 89.8005-43.0608 162.2397C838.8869 1338.5375 854.6931 1251.9408 970.1104 1131.7183zM2554.1477 898.9908c8.2119-44.9417 31.3135-89.9872-9.9717-127.9266 23.4854-38.6219 45.676-75.1145 68.7344-113.0342C2658.6025 727.347 2626.9934 854.0881 2554.1477 898.9908zM1366.3713 1177.3258c31.5707-11.5939 42.207-43.7932 63.8837-65.1459 12.4766-12.29 23.5826-25.9716 35.2561-38.9717 34.6892 32.4457 37.5298 44.709 22.9899 91.384-16.6154-3.4441-20.6385-37.14-40.8175-23.2913-19.6255 13.4691-42.2334 28.7279-44.778 57.6014-2.785 31.5996-12.3201 61.3514-28.5244 88.493-8.8447 14.8147-17.8579 31.1301-39.2198 31.7639-.9426-50.9238-4.2377-101.7473 32.7958-143.3383L1366.3713 1177.3258zM417.9382 390.2786c-36.279 41.1315-52.4664 85.1608-21.8514 136.0718 18.3215 1.5655 13.6913-13.1951 18.4726-21.4516 16.2359 2.0102 20.6534 13.492 23.4026 26.8942-49.8029 11.2145-81.7313-7.1734-97.8204-55.7343-18.3602-55.4157 21.6282-116.2554 103.2415-156.4825 13.2246 14.3907-2.7692 27.3822-2.1 40.9975C433.5015 370.4753 425.7198 380.3769 417.9382 390.2786zM2205.542 983.1886c45.9395-27.804 84.7021-61.1282 110.8721-107.8273 6.9189-12.3466 8.1504-11.6566 79.1047-17.3404C2406.2253 932.9194 2341.0811 965.4251 2205.542 983.1886zM1226.109 1466.5397c-36.6421 33.5659-112.6855 45.0519-133.3914 25.3041-29.2711-27.9167-30.7092-119.5502 4.0808-158.931C1099.1104 1417.3096 1149.7549 1452.438 1226.109 1466.5397zM1929.2889 451.4803c25.4935-46.0576 181.9943-138.3772 242.7142-143.1771C2144.8701 368.2144 2038.5348 430.9415 1929.2889 451.4803z" fill="#e40000" class="color000 svgShape"></path><path d="M903.7117 1084.0863c23.337-40.0807 39.8425-81.8495 68.0577-113.0182 26.8735-29.6865 65.3792-49.0646 95.0948-84.0278C1072.822 970.89 982.028 1069.9642 903.7117 1084.0863zM2087.5405 465.6726c4.8984-4.315 9.7966-8.63 14.6948-12.945 48.71-18.0923 98.8464-30.3161 153.0964-34.0462-66.3564 54.3554-142.7649 94.7813-209.8025 165.3664C2057.7375 535.0523 2087.2385 505.4363 2087.5405 465.6726zM2347.7273 968.4527c38.4431-27.1682 58.5051-55.5522 61.9856-93.3461 1.1973-12.9963 11.7915-15.8204 20.0952-21.7826 22.5249-16.1734 44.6589-32.8914 67.2932-49.6492C2527.1267 865.4637 2440.0918 966.5638 2347.7273 968.4527zM1787.8257 613.1095c36.9257-36.6685 55.9868-89.9549 108.3907-118.2752-2.6968 35.0044-5.4352 65.8089-7.2362 96.6681-.5779 9.9033-3.1036 16.7422-13.0242 20.4933-43.1094 16.2998-73.7343 47.1997-99.2382 92.9052-15.0999-39.0087 17.9583-63.5138 12.5442-93.2317L1787.8257 613.1095zM1013.1406 732.1328c-25.7561-73.2864-59.9462-90.2836-132.4769-68.5112-40.7896 12.2443-81.338 25.2914-123.3424 34.1534 57.0264-50.6927 122.2745-82.8996 200.5062-71.4843C1013.3649 634.3945 1034.4111 677.0623 1013.1406 732.1328zM375.7401 567.3721c39.5016-34.3276 65.7562-15.0034 90.1441 7.8677 30.472 28.5767 62.1414 46.9277 111.5345 15.2957-16.0314 41.1986-41.8882 54.9384-72.861 59.0431-28.6195 3.7928-55.9273-6.1962-67.2784-33.3768C426.227 589.7365 405.9676 578.875 375.7401 567.3721zM1389.8749 445.0146c-54.6539-35.5354-111.9935-53.8633-175.6888-32.691-7.5884-19.3896-9.5458-35.1573-7.1433-51.3397C1276.0674 343.0533 1357.8448 378.8822 1389.8749 445.0146zM902.7555 505.8102c65.9349-34.0644 121.2533-54.6713 191.0062-14.5916-40.3092 16.1183-79.0308 23.5782-101.3641 59.3546C965.4449 533.4827 940.7499 517.0538 902.7555 505.8102zM477.7166 395.3134c6.1502 7.8213 12.3005 15.6426 20.6927 26.3149 41.1186-29.4068 65.3937-82.7705 132.3136-90.7666-46.7394 34.8142-70.9863 74.8866-92.5522 117.3405-8.1719 16.0869-14.5403 40.706-40.4592 32.6859-21.2503-6.5754-25.823-27.2605-26.2199-47.6655-.2025-10.4153.7657-20.8532 1.2048-31.281C474.5825 399.8935 476.2559 397.684 477.7166 395.3134zM2481.1201 424.5675c-57.4436-41.1606-113.8743-57.4522-178.437-35.2046 22.0349-31.3823 38.5144-64.9006 83.7725-54.597C2430.9602 344.8979 2473.2676 380.7456 2481.1201 424.5675zM2645.8901 694.3265c-1.3293-41.4622-1.9954-73.0574-26.5232-103.6084-16.4805-20.527 8.8428-51.1451 12.8657-79.1048C2687.3894 545.6302 2694.864 631.0224 2645.8901 694.3265zM631.4338 951.9841c-54.4024 8.342-108.847 15.954-161.9182 31.7059-38.6111 11.4601-69.8468-8.799-77.122-52.688 50.6778 68.2525 109.2835 17.2342 163.315 18.1677 83.4557 1.4419 48.2355-87.4991 89.2142-122.1791-5.2403 42.8066-14.7629 84.2122-15.0066 126.5483L631.4338 951.9841zM1081.4637 842.0742c-34.6069 31.8273-64.876 62.3538-104.1607 84.4876 29.0495-49.7396 46.1268-103.1317 58.1044-162.1195C1050.0758 789.1671 1064.7441 813.8918 1081.4637 842.0742zM2148.5181 394.0347c28.3115-63.8021 79.9749-80.4686 143.2483-82.4996C2261.1538 368.3542 2214.8955 393.8358 2148.5181 394.0347z" fill="#e40000" class="color000 svgShape"></path><path d="M477.7166 395.3134c-1.4607 2.3706-3.1341 4.5801-5.0202 6.6284-26.3564 5.9433-33.1886 30.9402-48.3188 51.9988-16.5694-21.6426-4.7718-43.4644-6.4393-63.662 7.7816-9.9016 15.5632-19.8033 23.3448-29.7049 22.9018-15.6606 45.8036-31.3211 72.5088-49.5825C517.2507 348.8921 488.6786 368.4739 477.7166 395.3134zM1534.5624 894.6377c12.0206-19.2766 22.7581-36.4956 33.5585-53.8154 42.2054 29.3844 55.1487 68.6561 41.5028 129.1837C1583.4471 944.5129 1565.8752 913.8214 1534.5624 894.6377zM1601.4611 1185.67c-25.0702 10.8781-50.1405 21.7563-75.2108 32.6344 46.7618-60.6644 98.5251-115.3689 132.8284-183.6395-1.9169 58.4369-42.4803 100.6528-59.0242 152.4398L1601.4611 1185.67zM1529.6567 1112.389c1.571-38.4006 12.8098-71.5844-10.036-103.5269-9.1256-12.7593 6.4187-29.0688 17.2787-41.0479C1590.1934 1012.3092 1588.5647 1075.6249 1529.6567 1112.389zM477.3521 564.3732c64.7746 14.8891 127.512-5.5803 190.7555-6.274-9.8876 35.3005-16.4678 40.9955-70.6341 60.8297-14.4221-7.9073 14.7145-27.3812-9.2576-34.6447-15.8577-4.8049-28.8803-11.0035-46.0359-2.3075C517.269 594.6038 494.0497 590.1294 477.3521 564.3732zM1209.7349 301.1802c-34.1724 64.2076-38.6312 64.8013-215.496 28.3792C1065.9469 322.4745 1143.8618 357.1183 1209.7349 301.1802zM539.888 732.1765c12.8649-8.8713 28.713-14.3297 35.0656-30.6511l-1.412 1.2955c32.4561-3.4933 57.1301-30.6529 96.0411-32.3585-16.7383 15.3207-29.5911 27.0849-41.9517 38.3986 8.6567 14.7562 17.7939-.6871 26.7886 5.9957-9.949 14.0491-19.9626 28.2705-30.0638 42.4296-9.3828 13.1519-29.8619 8.7184-30.3879 3.02-3.6022-39.0192-39.0278-14.7281-53.7221-29.3801L539.888 732.1765zM1133.3652 369.6705c16.5359 41.4698-7.4484 66.9197-25.442 96.1817-24.3459-9.5648-47.1772-18.5345-77.7028-30.5269C1071.816 418.9098 1099.9806 393.877 1133.3652 369.6705zM834.741 701.9046c46.7645-29.104 87.5348-31.5479 107.2252-6.0405 19.0574 24.6873 31.5275 52.5901-1.7012 78.0338C912.5105 713.5535 897.6692 702.7585 834.741 701.9046zM2574.2385 607.2406c-12.176 68.89-49.5637 111.4152-93.6785 154.0666C2474.9434 711.4238 2495.9817 677.3614 2574.2385 607.2406zM1176.2035 535.9394c-48.451 21.938-88.2986.3394-128.6674 11.3122 22.0729-36.915 42.5581-49.1961 96.6384-59.0952C1149.8956 504.778 1140.6782 529.4138 1176.2035 535.9394zM319.7004 624.7543c32.0894-50.2203 85.1471-33.0223 136.3818 40.4009C404.1032 664.1999 372.657 610.4955 319.7004 624.7543zM859.8937 502.0396c-80.3777 3.6671-147.3929 38.6615-148.6591 85.2682 51.6185-29.5838 100.1602-57.4032 148.6635-85.2023C859.897 502.0835 859.8937 502.0616 859.8937 502.0396zM754.43 648.6153c17.829-13.252 35.1231-27.3101 53.6074-39.5745 30.7642-20.4121 62.6951-22.717 96.3517.3258-51.2836 4.8363-96.2507 25.686-140.9928 47.3516-.8429.4082-5.0612-6.154-7.7046-9.4639L754.43 648.6153zM1693.6178 986.3386c14.748-54.9115 29.4961-109.8231 46.125-171.7372C1760.525 886.5573 1731.9868 937.7673 1693.6178 986.3386z" fill="#e40000" class="color000 svgShape"></path><path d="M2522.158 592.6427c14.845 53.3865-9.8457 87.1155-69.5618 98.9211C2460.6946 647.8416 2499.03 627.319 2522.158 592.6427zM2335.2412 823.968c37.1021-31.721 74.9265-57.3721 103.3538-94.6259C2452.5 774.221 2409.2117 814.1436 2335.2412 823.968zM2674.6016 293.2802c-34.5261-4.5011-64.8416 6.3643-92.7063 20.2467-16.3447-6.7279-15.939-22.3138-27.3721-33.2518C2599.2537 262.1978 2636.4314 280.989 2674.6016 293.2802zM2482.5415 475.3878c38.926 39.3514 37.5989 72.1196-8.3733 122.504C2477.2056 553.4533 2479.813 515.3029 2482.5415 475.3878zM401.9571 705.2239c28.6956-22.2131 57.2407-24.9535 81.3479-1.8058 21.1519 20.3099 7.4323 39.8376-12.3356 55.7769C471.6606 713.2118 469.8758 711.7869 401.9571 705.2239zM539.888 732.1765l.3578-1.2503c-12.6705 8.3018-26.3695 19.9368-30.8855-6.8698-3.1306-18.583-5.2838-37.3307-7.9482-56.5421C549.7269 683.204 553.0486 688.9531 539.888 732.1765zM422.1324 1006.6293c-.8653 35.5178 12.5269 62.4921 28.0916 90.9633C397.597 1084.861 388.3037 1056.2689 422.1324 1006.6293zM710.1619 602.5295c-12.2036 32.7012-43.3535 22.0214-71.0314 37.6019C655.0497 599.6706 675.6271 587.9797 710.1619 602.5295zM807.3179 338.7476c-22.4839 9.9601-42.2097 33.4377-62.1678 11.5317-12.8759-14.1324 4.3911-25.6364 15.1294-40.039C774.7866 322.6996 778.7512 351.6127 807.3179 338.7476zM488.0865 1202.5287c-5.4066 1.7507-10.8132 3.5015-20.0237 6.4838 5.2917-30.7493 10.337-59.6201-.7555-94.5107 41.7098 28.1813 23.0638 60.1271 19.3198 89.4653L488.0865 1202.5287zM574.9536 701.5254c-28.3239-7.6885-6.0371-28.725-13.7709-41.8068 25.5683 9.4762 29.58 23.9142 12.3589 43.1022L574.9536 701.5254zM469.4013 490.4794c-22.251.5676-41.426 15.5108-54.882-20.0921C433.9113 480.0462 451.9471 470.0819 469.4013 490.4794zM616.1987 646.4713c5.6838 1.5236 12.0548 3.1931 12.1443 10.1758.1054 8.2241-5.3972 13.3366-13.4158 13.1768-7.7686-.155-7.3987-7.6931-8.4665-13.0444C604.9484 649.1992 609.8304 646.9694 616.1987 646.4713zM649.7221 483.1549c-5.327 1.112-8.2987-1.7573-9.4659-6.3446-1.4951-5.8762 3.0505-7.5223 7.3426-8.5414 5.151-1.223 8.2754 1.7606 9.4996 6.3593C658.7137 480.6959 653.7449 481.6665 649.7221 483.1549z" fill="#e40000" class="color000 svgShape"></path></svg></g></svg>